<?xml version="1.0" encoding="utf-8"?>
<!-- Generator: Adobe Illustrator 22.0.1, SVG Export Plug-In . SVG Version: 6.00 Build 0)  -->
<svg version="1.1" id="Layer_1" xmlns="http://www.w3.org/2000/svg" xmlns:xlink="http://www.w3.org/1999/xlink" x="0px" y="0px"
	 viewBox="0 0 1000 500" style="enable-background:new 0 0 1000 500;" xml:space="preserve">
<style type="text/css">
	.st0{fill:#414142;}
	.st1{fill:#020203;}
	.st2{fill:#E9E9E9;}
	.st3{fill:#FFFFFF;stroke:#949494;stroke-width:0.2;stroke-linecap:round;stroke-linejoin:round;stroke-miterlimit:10;}
	.st4{fill:#FFFFFF;stroke:#5C5C5B;stroke-width:0.2;stroke-linecap:round;stroke-linejoin:round;stroke-miterlimit:10;}
	.st5{enable-background:new    ;}
	.st6{fill:#D40D41;}
	.st7{fill:#454444;}
	.st8{fill:#5C5C5B;}
	.st9{fill:#FFFFFF;}
</style>
<g id="svg2PC">
	<path class="st0" d="M958.2,154.5H717.4c-3.9,0-7.1,3.2-7.1,7.1v151.6c0,3.9,3.2,7.1,7.1,7.1h94.9c-0.1,9.7-1.8,15.6-3.5,19
		c-0.9,1.8-1.7,2.9-2.4,3.6c-0.3,0.3-0.6,0.6-0.8,0.7c-0.1,0-0.1,0.1-0.1,0.1h-12.1c-1.6,0-3.3,0.6-4.6,1.7c-1.3,1-2.2,2.5-2.2,4.2
		v2.8c0,0.5,0.4,1,1,1H888c0.5,0,1-0.4,1-1v-2.8c0-1.7-0.9-3.1-2.2-4.2c-1.3-1-3-1.7-4.6-1.7h-12.1c-0.5-0.3-1.9-1.5-3.4-4.4
		c-1.7-3.4-3.3-9.3-3.5-19h94.9c3.9,0,7.1-3.2,7.1-7.1V161.6C965.3,157.7,962.1,154.5,958.2,154.5z M882.2,345.7
		c1.1,0,2.3,0.5,3.3,1.2s1.6,1.7,1.6,2.7v1.8h-98.6v-1.8c0-1,0.7-2,1.6-2.7c1-0.7,2.2-1.2,3.3-1.2H882.2z M867.2,343.8h-58.9
		c2.3-2.8,5.8-9.2,6-23.4h47C861.4,334.5,864.9,341,867.2,343.8z M963.3,313.2c0,1.4-0.6,2.7-1.5,3.7c-0.9,0.9-2.2,1.5-3.7,1.5
		H717.4c-1.4,0-2.7-0.6-3.7-1.5c-0.9-0.9-1.5-2.2-1.5-3.7v-10h251.1L963.3,313.2L963.3,313.2z M963.3,301.2H712.2V168.3h251.1
		L963.3,301.2L963.3,301.2z M963.3,166.4H712.2v-4.8c0-1.4,0.6-2.7,1.5-3.7c0.9-0.9,2.2-1.5,3.7-1.5h240.7c1.4,0,2.7,0.6,3.7,1.5
		c0.9,0.9,1.5,2.2,1.5,3.7L963.3,166.4L963.3,166.4z"/>
	<path id="XMLID_961_" class="st0" d="M844.8,307.5h-14c-1.8,0-3.2,1.4-3.2,3.2c0,1.8,1.4,3.2,3.2,3.2h14c1.8,0,3.2-1.4,3.2-3.2
		C848,309,846.6,307.5,844.8,307.5z M845.7,311.6c-0.2,0.2-0.5,0.4-0.9,0.4h-14c-0.3,0-0.7-0.1-0.9-0.4c-0.2-0.2-0.4-0.5-0.4-0.9
		c0-0.3,0.1-0.7,0.4-0.9c0.2-0.2,0.5-0.4,0.9-0.4h14c0.3,0,0.7,0.1,0.9,0.4c0.2,0.2,0.4,0.5,0.4,0.9
		C846,311.1,845.9,311.4,845.7,311.6z"/>
</g>
<g id="svg2router">
	<path d="M482.5,308.6H390c-5.5,0-10,4.5-10,10v14.1c0,5.5,4.5,10,10,10h92.4c5.5,0,10-4.5,10-10v-14.1
		C492.5,313.2,488,308.6,482.5,308.6L482.5,308.6z M490.2,333.7c0,3.8-2.8,6.8-6.2,6.8h-95.6c-3.4,0-6.2-3.1-6.2-6.8v-15.9
		c0-3.8,2.8-6.8,6.2-6.8H484c3.4,0,6.2,3.1,6.2,6.8V333.7z"/>
	<path d="M468.9,318.9c-3.5,0-6.3,2.8-6.3,6.3s2.8,6.3,6.3,6.3s6.3-2.8,6.3-6.3S472.4,318.9,468.9,318.9L468.9,318.9z M468.9,328.7
		c-1.9,0-3.5-1.6-3.5-3.5s1.6-3.5,3.5-3.5s3.5,1.6,3.5,3.5C472.4,327.2,470.8,328.7,468.9,328.7L468.9,328.7z"/>
	<path id="svg2routerlink3" d="M416.8,322.9c-1.3,0-2.4,1.1-2.4,2.4s1.1,2.4,2.4,2.4s2.4-1.1,2.4-2.4
		C419.1,323.9,418.1,322.9,416.8,322.9L416.8,322.9z"/>
	<path id="svg2routerlink2" d="M403.6,322.9c-1.3,0-2.4,1.1-2.4,2.4s1.1,2.4,2.4,2.4s2.4-1.1,2.4-2.4
		C406,323.9,404.9,322.9,403.6,322.9L403.6,322.9z"/>
	<path id="svg2routerlnik1" d="M391.1,322.9c-1.3,0-2.4,1.1-2.4,2.4s1.1,2.4,2.4,2.4s2.4-1.1,2.4-2.4
		C393.4,323.9,392.3,322.9,391.1,322.9L391.1,322.9z"/>
	<rect x="457.2" y="269.5" width="2.5" height="36.2"/>
	<rect x="413.3" y="269.5" width="2.5" height="36.2"/>
</g>
<rect id="svg2dash6" x="657.4" y="322" width="16" height="4"/>
<rect id="svg2dash5" x="597.1" y="322" width="16" height="4"/>
<rect id="svg2dash4" x="536.4" y="322" width="16" height="4"/>
<rect id="svg2dash3" x="306.4" y="322" width="16" height="4"/>
<rect id="svg2dash2" x="246.1" y="322" width="16" height="4"/>
<rect id="svg2dash1" x="185.4" y="322" width="16" height="4"/>
<g id="svg2barcode">
	<g>
		<g>
			<path class="st1" d="M101.1,278.4h-5.3c-0.7,0-1.3,0.6-1.3,1.3v5.3c0,0.7,0.6,1.3,1.3,1.3s1.3-0.6,1.3-1.3v-4h4
				c0.7,0,1.3-0.6,1.3-1.3S101.8,278.4,101.1,278.4z"/>
		</g>
	</g>
	<g>
		<g>
			<path class="st1" d="M133.1,302.4c-0.7,0-1.3,0.6-1.3,1.3v4h-4c-0.7,0-1.3,0.6-1.3,1.3s0.6,1.3,1.3,1.3h5.3
				c0.7,0,1.3-0.6,1.3-1.3v-5.3C134.4,303,133.8,302.4,133.1,302.4z"/>
		</g>
	</g>
	<g>
		<g>
			<path class="st1" d="M133.1,278.4h-5.3c-0.7,0-1.3,0.6-1.3,1.3c0,0.7,0.6,1.3,1.3,1.3h4v4c0,0.7,0.6,1.3,1.3,1.3s1.3-0.6,1.3-1.3
				v-5.3C134.4,279,133.8,278.4,133.1,278.4z"/>
		</g>
	</g>
	<g>
		<g>
			<path class="st1" d="M101.1,307.7h-4v-4c0-0.7-0.6-1.3-1.3-1.3s-1.3,0.6-1.3,1.3v5.3c0,0.7,0.6,1.3,1.3,1.3h5.3
				c0.7,0,1.3-0.6,1.3-1.3S101.8,307.7,101.1,307.7z"/>
		</g>
	</g>
	<g>
		<g>
			<rect x="99.7" y="283.7" class="st1" width="2.7" height="21.3"/>
		</g>
	</g>
	<g>
		<g>
			<rect x="105.1" y="283.7" class="st1" width="2.7" height="16"/>
		</g>
	</g>
	<g>
		<g>
			<rect x="110.4" y="283.7" class="st1" width="2.7" height="16"/>
		</g>
	</g>
	<g>
		<g>
			<rect x="115.7" y="283.7" class="st1" width="2.7" height="21.3"/>
		</g>
	</g>
	<g>
		<g>
			<rect x="121.1" y="283.7" class="st1" width="2.7" height="16"/>
		</g>
	</g>
	<g>
		<g>
			<rect x="126.4" y="283.7" class="st1" width="2.7" height="21.3"/>
		</g>
	</g>
	<g>
		<g>
			<rect x="105.1" y="302.4" class="st1" width="2.7" height="2.7"/>
		</g>
	</g>
	<g>
		<g>
			<rect x="110.4" y="302.4" class="st1" width="2.7" height="2.7"/>
		</g>
	</g>
	<g>
		<g>
			<rect x="121.1" y="302.4" class="st1" width="2.7" height="2.7"/>
		</g>
	</g>
</g>
<rect x="764.5" y="197.3" class="st2" width="15.3" height="6.8"/>
<rect x="784.3" y="197.3" class="st2" width="15.3" height="6.8"/>
<rect x="804.3" y="197.3" class="st2" width="15.3" height="6.8"/>
<rect x="824.5" y="197.3" class="st2" width="61.6" height="6.8"/>
<g id="svg2items">
	<path id="svg2item1" class="st3" d="M884.1,217H766.3c-1,0-1.9-0.8-1.9-1.9v-4.7c0-1,0.8-1.9,1.9-1.9h117.8c1,0,1.9,0.8,1.9,1.9
		v4.7C886,216.1,885.2,217,884.1,217z"/>
	<path id="svg2item2" class="st3" d="M884.1,230H766.3c-1,0-1.9-0.8-1.9-1.9v-4.7c0-1,0.8-1.9,1.9-1.9h117.8c1,0,1.9,0.8,1.9,1.9
		v4.7C886,229.1,885.2,230,884.1,230z"/>
	<path id="svg2item3" class="st3" d="M884.1,242.9H766.3c-1,0-1.9-0.8-1.9-1.9v-4.7c0-1,0.8-1.9,1.9-1.9h117.8c1,0,1.9,0.8,1.9,1.9
		v4.7C886,242.1,885.2,242.9,884.1,242.9z"/>
	<path id="svg2item4" class="st3" d="M884.1,255.9H766.3c-1,0-1.9-0.8-1.9-1.9v-4.7c0-1,0.8-1.9,1.9-1.9h117.8c1,0,1.9,0.8,1.9,1.9
		v4.7C886,255.1,885.2,255.9,884.1,255.9z"/>
	<path id="svg2item5" class="st3" d="M884.1,268.9H766.3c-1,0-1.9-0.8-1.9-1.9v-4.7c0-1,0.8-1.9,1.9-1.9h117.8c1,0,1.9,0.8,1.9,1.9
		v4.7C886,268.1,885.2,268.9,884.1,268.9z"/>
	<path id="svg2item6" class="st3" d="M884.1,281.9H766.3c-1,0-1.9-0.8-1.9-1.9v-4.7c0-1,0.8-1.9,1.9-1.9h117.8c1,0,1.9,0.8,1.9,1.9
		v4.7C886,281,885.2,281.9,884.1,281.9z"/>
	<path id="svg2item7" class="st3" d="M884.1,294.9H766.3c-1,0-1.9-0.8-1.9-1.9v-4.7c0-1,0.8-1.9,1.9-1.9h117.8c1,0,1.9,0.8,1.9,1.9
		v4.7C886,294,885.2,294.9,884.1,294.9z"/>
</g>
<g id="actionsheet">
	<path id="content" class="st4" d="M132.3,333.4H96.6c-2,0-3.7,1.6-3.7,3.7v34.3c0,2,1.6,3.7,3.7,3.7h35.6c2,0,3.7-1.6,3.7-3.7V337
		C136,335,134.3,333.4,132.3,333.4z"/>
	<path id="cancel" class="st4" d="M132.7,376.8H96c-1.7,0-3.2,1.4-3.2,3.2v3.3c0,1.7,1.4,3.2,3.2,3.2h36.7c1.7,0,3.2-1.4,3.2-3.2
		V380C135.9,378.2,134.4,376.8,132.7,376.8z"/>
	<g class="st5">
		<path class="st6" d="M107.9,381.9l0.6,0.1c-0.1,0.5-0.3,0.8-0.6,1.1s-0.7,0.4-1.1,0.4c-0.5,0-0.8-0.1-1.1-0.3s-0.5-0.5-0.7-0.8
			c-0.2-0.4-0.2-0.7-0.2-1.2c0-0.5,0.1-0.8,0.3-1.2s0.4-0.6,0.7-0.8c0.3-0.2,0.7-0.3,1-0.3c0.4,0,0.8,0.1,1.1,0.3s0.5,0.5,0.6,0.9
			l-0.6,0.1c-0.1-0.3-0.2-0.5-0.4-0.7s-0.4-0.2-0.7-0.2c-0.3,0-0.6,0.1-0.8,0.2c-0.2,0.2-0.4,0.4-0.5,0.6c-0.1,0.3-0.1,0.5-0.1,0.8
			c0,0.4,0.1,0.7,0.2,1c0.1,0.3,0.3,0.5,0.5,0.6c0.2,0.1,0.5,0.2,0.7,0.2c0.3,0,0.6-0.1,0.8-0.3S107.9,382.3,107.9,381.9z"/>
		<path class="st6" d="M111.2,383c-0.2,0.2-0.4,0.3-0.6,0.4c-0.2,0.1-0.4,0.1-0.6,0.1c-0.3,0-0.6-0.1-0.8-0.3
			c-0.2-0.2-0.3-0.4-0.3-0.6c0-0.2,0-0.3,0.1-0.4c0.1-0.1,0.2-0.2,0.3-0.3s0.2-0.1,0.4-0.2c0.1,0,0.3-0.1,0.5-0.1
			c0.4-0.1,0.7-0.1,0.9-0.2c0-0.1,0-0.1,0-0.1c0-0.2-0.1-0.4-0.2-0.5c-0.1-0.1-0.3-0.2-0.6-0.2c-0.2,0-0.4,0-0.6,0.1
			c-0.1,0.1-0.2,0.2-0.3,0.5l-0.5-0.1c0-0.2,0.1-0.4,0.2-0.5c0.1-0.1,0.3-0.2,0.5-0.3c0.2-0.1,0.4-0.1,0.7-0.1c0.3,0,0.5,0,0.7,0.1
			c0.2,0.1,0.3,0.1,0.4,0.2c0.1,0.1,0.1,0.2,0.2,0.4c0,0.1,0,0.3,0,0.5v0.7c0,0.5,0,0.8,0,0.9c0,0.1,0.1,0.3,0.1,0.4h-0.6
			C111.2,383.3,111.2,383.2,111.2,383z M111.1,381.9c-0.2,0.1-0.5,0.1-0.9,0.2c-0.2,0-0.4,0.1-0.5,0.1c-0.1,0-0.2,0.1-0.2,0.2
			c0,0.1-0.1,0.2-0.1,0.3c0,0.1,0.1,0.3,0.2,0.4c0.1,0.1,0.3,0.1,0.5,0.1c0.2,0,0.4,0,0.5-0.1c0.2-0.1,0.3-0.2,0.4-0.4
			c0.1-0.1,0.1-0.3,0.1-0.5V381.9z"/>
		<path class="st6" d="M112.5,383.4v-3.1h0.5v0.4c0.2-0.3,0.6-0.5,1-0.5c0.2,0,0.4,0,0.5,0.1c0.2,0.1,0.3,0.2,0.4,0.3
			c0.1,0.1,0.1,0.2,0.2,0.4c0,0.1,0,0.3,0,0.5v1.9h-0.5v-1.9c0-0.2,0-0.4-0.1-0.5c0-0.1-0.1-0.2-0.2-0.3c-0.1-0.1-0.2-0.1-0.4-0.1
			c-0.2,0-0.4,0.1-0.6,0.2s-0.2,0.4-0.2,0.8v1.7H112.5z"/>
		<path class="st6" d="M117.9,382.3l0.5,0.1c-0.1,0.4-0.2,0.6-0.4,0.8c-0.2,0.2-0.5,0.3-0.9,0.3c-0.4,0-0.8-0.1-1-0.4
			c-0.3-0.3-0.4-0.7-0.4-1.2c0-0.3,0.1-0.6,0.2-0.9c0.1-0.3,0.3-0.4,0.5-0.6c0.2-0.1,0.5-0.2,0.7-0.2c0.3,0,0.6,0.1,0.8,0.3
			s0.4,0.4,0.4,0.7l-0.5,0.1c0-0.2-0.1-0.4-0.3-0.5c-0.1-0.1-0.3-0.2-0.5-0.2c-0.3,0-0.5,0.1-0.7,0.3c-0.2,0.2-0.3,0.5-0.3,0.9
			c0,0.4,0.1,0.7,0.2,0.9c0.2,0.2,0.4,0.3,0.6,0.3c0.2,0,0.4-0.1,0.5-0.2C117.8,382.7,117.9,382.6,117.9,382.3z"/>
		<path class="st6" d="M121,382.4l0.5,0.1c-0.1,0.3-0.2,0.6-0.5,0.7c-0.2,0.2-0.5,0.3-0.9,0.3c-0.5,0-0.8-0.1-1.1-0.4
			c-0.3-0.3-0.4-0.7-0.4-1.2c0-0.5,0.1-0.9,0.4-1.2c0.3-0.3,0.6-0.4,1.1-0.4c0.4,0,0.8,0.1,1,0.4c0.3,0.3,0.4,0.7,0.4,1.2
			c0,0,0,0.1,0,0.1h-2.3c0,0.3,0.1,0.6,0.3,0.8s0.4,0.3,0.7,0.3c0.2,0,0.4-0.1,0.5-0.2C120.8,382.8,120.9,382.6,121,382.4z
			 M119.3,381.6h1.7c0-0.3-0.1-0.5-0.2-0.6c-0.2-0.2-0.4-0.3-0.7-0.3c-0.2,0-0.4,0.1-0.6,0.2S119.3,381.3,119.3,381.6z"/>
		<path class="st6" d="M122.2,383.4v-4.3h0.5v4.3H122.2z"/>
	</g>
	<g class="st5">
		<path class="st7" d="M103,347.5v-10.1h-3.8v-1.4h9.1v1.4h-3.8v10.1H103z"/>
		<path class="st7" d="M109.1,337.7v-1.6h1.4v1.6H109.1z M109.1,347.5v-8.3h1.4v8.3H109.1z"/>
		<path class="st7" d="M115.7,346.3l0.2,1.2c-0.4,0.1-0.8,0.1-1.1,0.1c-0.5,0-0.9-0.1-1.2-0.2s-0.5-0.4-0.6-0.6
			c-0.1-0.3-0.2-0.8-0.2-1.7v-4.8h-1v-1.1h1v-2.1l1.4-0.8v2.9h1.4v1.1h-1.4v4.9c0,0.4,0,0.7,0.1,0.8c0,0.1,0.1,0.2,0.2,0.3
			c0.1,0.1,0.3,0.1,0.5,0.1C115.2,346.3,115.4,346.3,115.7,346.3z"/>
		<path class="st7" d="M117,347.5v-11.5h1.4v11.5H117z"/>
		<path class="st7" d="M126.3,344.8l1.5,0.2c-0.2,0.8-0.7,1.5-1.3,2c-0.6,0.5-1.4,0.7-2.4,0.7c-1.2,0-2.2-0.4-2.9-1.1
			s-1.1-1.8-1.1-3.1c0-1.4,0.4-2.5,1.1-3.3s1.7-1.2,2.8-1.2c1.1,0,2,0.4,2.7,1.1s1.1,1.8,1.1,3.2c0,0.1,0,0.2,0,0.4h-6.2
			c0.1,0.9,0.3,1.6,0.8,2.1c0.5,0.5,1,0.7,1.7,0.7c0.5,0,1-0.1,1.3-0.4C125.8,345.9,126.1,345.4,126.3,344.8z M121.7,342.6h4.6
			c-0.1-0.7-0.2-1.2-0.5-1.6c-0.4-0.5-1-0.8-1.7-0.8c-0.6,0-1.2,0.2-1.6,0.6C122,341.3,121.7,341.8,121.7,342.6z"/>
	</g>
	<g class="st5">
		<path class="st8" d="M104.7,359.1l0.7-0.1c0.1,0.4,0.2,0.6,0.4,0.8s0.4,0.3,0.7,0.3c0.3,0,0.6-0.1,0.9-0.4s0.4-0.6,0.4-1
			c0-0.4-0.1-0.7-0.3-0.9s-0.5-0.3-0.9-0.3c-0.2,0-0.4,0.1-0.6,0.2s-0.3,0.2-0.4,0.4l-0.7-0.1l0.6-2.9h2.8v0.7H106l-0.3,1.5
			c0.3-0.2,0.7-0.4,1.1-0.4c0.5,0,0.9,0.2,1.3,0.5s0.5,0.8,0.5,1.3c0,0.5-0.2,1-0.5,1.3c-0.4,0.5-0.9,0.7-1.5,0.7
			c-0.5,0-0.9-0.1-1.3-0.4S104.8,359.6,104.7,359.1z"/>
		<path class="st8" d="M109.2,355.6v-0.7h3.7v0.5c-0.4,0.4-0.7,0.9-1.1,1.5s-0.6,1.3-0.8,2c-0.1,0.5-0.2,1-0.3,1.6H110
			c0-0.5,0.1-1,0.3-1.6s0.4-1.3,0.7-1.8s0.7-1.1,1-1.5H109.2z"/>
		<path class="st8" d="M114,360.6v-0.8h0.8v0.8H114z"/>
		<path class="st8" d="M116,359.3l0.7-0.1c0.1,0.3,0.2,0.5,0.3,0.7s0.4,0.2,0.6,0.2c0.2,0,0.4,0,0.6-0.1s0.3-0.2,0.4-0.4
			s0.2-0.4,0.3-0.7s0.1-0.6,0.1-0.9c0,0,0-0.1,0-0.1c-0.1,0.2-0.3,0.4-0.6,0.5s-0.5,0.2-0.8,0.2c-0.5,0-0.9-0.2-1.2-0.5
			s-0.5-0.8-0.5-1.4c0-0.6,0.2-1,0.5-1.4s0.8-0.5,1.3-0.5c0.4,0,0.7,0.1,1,0.3s0.5,0.5,0.7,0.9s0.2,0.9,0.2,1.6
			c0,0.7-0.1,1.3-0.2,1.7s-0.4,0.8-0.7,1s-0.7,0.3-1.1,0.3c-0.4,0-0.8-0.1-1.1-0.4S116,359.7,116,359.3z M118.8,356.7
			c0-0.4-0.1-0.7-0.3-1s-0.5-0.4-0.8-0.4c-0.3,0-0.6,0.1-0.8,0.4s-0.3,0.6-0.3,1c0,0.4,0.1,0.7,0.3,0.9s0.5,0.3,0.8,0.3
			c0.3,0,0.6-0.1,0.8-0.3S118.8,357.1,118.8,356.7z"/>
		<path class="st8" d="M120.4,359.3l0.7-0.1c0.1,0.3,0.2,0.5,0.3,0.7s0.4,0.2,0.6,0.2c0.2,0,0.4,0,0.6-0.1s0.3-0.2,0.4-0.4
			s0.2-0.4,0.3-0.7s0.1-0.6,0.1-0.9c0,0,0-0.1,0-0.1c-0.1,0.2-0.3,0.4-0.6,0.5s-0.5,0.2-0.8,0.2c-0.5,0-0.9-0.2-1.2-0.5
			s-0.5-0.8-0.5-1.4c0-0.6,0.2-1,0.5-1.4s0.8-0.5,1.3-0.5c0.4,0,0.7,0.1,1,0.3s0.5,0.5,0.7,0.9s0.2,0.9,0.2,1.6
			c0,0.7-0.1,1.3-0.2,1.7s-0.4,0.8-0.7,1s-0.7,0.3-1.1,0.3c-0.4,0-0.8-0.1-1.1-0.4S120.5,359.7,120.4,359.3z M123.3,356.7
			c0-0.4-0.1-0.7-0.3-1s-0.5-0.4-0.8-0.4c-0.3,0-0.6,0.1-0.8,0.4s-0.3,0.6-0.3,1c0,0.4,0.1,0.7,0.3,0.9s0.5,0.3,0.8,0.3
			c0.3,0,0.6-0.1,0.8-0.3S123.3,357.1,123.3,356.7z"/>
	</g>
	<g>
		<g>
			<path class="st8" d="M97.3,368.8v-5H99c0.4,0,0.7,0,0.9,0.1c0.3,0.1,0.5,0.2,0.7,0.4c0.3,0.2,0.5,0.5,0.6,0.9
				c0.1,0.3,0.2,0.7,0.2,1.2c0,0.4,0,0.7-0.1,1c-0.1,0.3-0.2,0.5-0.3,0.7s-0.3,0.3-0.5,0.5c-0.2,0.1-0.4,0.2-0.6,0.3
				c-0.2,0.1-0.5,0.1-0.8,0.1H97.3z M98,368.3H99c0.3,0,0.6,0,0.8-0.1c0.2-0.1,0.3-0.1,0.4-0.3c0.2-0.2,0.3-0.4,0.4-0.6
				c0.1-0.3,0.1-0.6,0.1-1c0-0.5-0.1-0.9-0.3-1.2c-0.2-0.3-0.4-0.5-0.6-0.6c-0.2-0.1-0.5-0.1-0.9-0.1H98V368.3z"/>
			<path class="st8" d="M104.8,367.7l0.6,0.1c-0.1,0.4-0.3,0.7-0.6,0.9s-0.6,0.3-1,0.3c-0.5,0-1-0.2-1.3-0.5
				c-0.3-0.3-0.5-0.8-0.5-1.4c0-0.6,0.2-1.1,0.5-1.4s0.7-0.5,1.2-0.5c0.5,0,0.9,0.2,1.2,0.5c0.3,0.3,0.5,0.8,0.5,1.4
				c0,0,0,0.1,0,0.2h-2.7c0,0.4,0.1,0.7,0.3,0.9c0.2,0.2,0.5,0.3,0.8,0.3c0.2,0,0.4-0.1,0.6-0.2S104.7,367.9,104.8,367.7z
				 M102.7,366.7h2c0-0.3-0.1-0.5-0.2-0.7c-0.2-0.2-0.5-0.4-0.8-0.4c-0.3,0-0.5,0.1-0.7,0.3C102.9,366.1,102.8,366.4,102.7,366.7z"
				/>
			<path class="st8" d="M105.9,367.8l0.6-0.1c0,0.2,0.1,0.4,0.3,0.6c0.2,0.1,0.4,0.2,0.7,0.2c0.3,0,0.5-0.1,0.6-0.2s0.2-0.3,0.2-0.4
				c0-0.1-0.1-0.2-0.2-0.3c-0.1-0.1-0.3-0.1-0.6-0.2c-0.5-0.1-0.8-0.2-0.9-0.3c-0.2-0.1-0.3-0.2-0.4-0.3c-0.1-0.1-0.1-0.3-0.1-0.5
				c0-0.2,0-0.3,0.1-0.4c0.1-0.1,0.2-0.3,0.3-0.3c0.1-0.1,0.2-0.1,0.4-0.2c0.2,0,0.3-0.1,0.5-0.1c0.3,0,0.5,0,0.8,0.1
				c0.2,0.1,0.4,0.2,0.5,0.3c0.1,0.1,0.2,0.3,0.2,0.6l-0.6,0.1c0-0.2-0.1-0.3-0.2-0.4c-0.1-0.1-0.3-0.2-0.6-0.2
				c-0.3,0-0.5,0-0.6,0.1c-0.1,0.1-0.2,0.2-0.2,0.3c0,0.1,0,0.2,0.1,0.2c0.1,0.1,0.1,0.1,0.2,0.2c0.1,0,0.2,0.1,0.5,0.2
				c0.4,0.1,0.7,0.2,0.9,0.3c0.2,0.1,0.3,0.2,0.4,0.3s0.1,0.3,0.1,0.5c0,0.2-0.1,0.4-0.2,0.6c-0.1,0.2-0.3,0.3-0.5,0.4
				c-0.2,0.1-0.5,0.1-0.8,0.1c-0.5,0-0.8-0.1-1.1-0.3C106.1,368.4,106,368.1,105.9,367.8z"/>
			<path class="st8" d="M112,367.5l0.6,0.1c-0.1,0.4-0.2,0.7-0.5,1c-0.3,0.2-0.6,0.4-1,0.4c-0.5,0-0.9-0.2-1.2-0.5
				c-0.3-0.3-0.5-0.8-0.5-1.4c0-0.4,0.1-0.7,0.2-1s0.3-0.5,0.6-0.7c0.3-0.1,0.6-0.2,0.9-0.2c0.4,0,0.7,0.1,1,0.3s0.4,0.5,0.5,0.8
				l-0.6,0.1c-0.1-0.2-0.2-0.4-0.3-0.6c-0.1-0.1-0.3-0.2-0.5-0.2c-0.3,0-0.6,0.1-0.8,0.3c-0.2,0.2-0.3,0.6-0.3,1.1
				c0,0.5,0.1,0.8,0.3,1.1c0.2,0.2,0.4,0.3,0.7,0.3c0.2,0,0.4-0.1,0.6-0.2C111.9,368.1,112,367.8,112,367.5z"/>
			<path class="st8" d="M113.2,368.8v-3.6h0.6v0.5c0.1-0.3,0.3-0.4,0.4-0.5c0.1-0.1,0.3-0.1,0.4-0.1c0.2,0,0.4,0.1,0.6,0.2l-0.2,0.6
				c-0.2-0.1-0.3-0.1-0.5-0.1c-0.1,0-0.3,0-0.4,0.1s-0.2,0.2-0.2,0.3c-0.1,0.2-0.1,0.5-0.1,0.7v1.9H113.2z"/>
			<path class="st8" d="M115.5,364.5v-0.7h0.6v0.7H115.5z M115.5,368.8v-3.6h0.6v3.6H115.5z"/>
			<path class="st8" d="M117,370.2v-5h0.6v0.5c0.1-0.2,0.3-0.3,0.4-0.4c0.2-0.1,0.4-0.1,0.6-0.1c0.3,0,0.6,0.1,0.8,0.2
				s0.4,0.4,0.5,0.7c0.1,0.3,0.2,0.6,0.2,1c0,0.4-0.1,0.7-0.2,1c-0.1,0.3-0.3,0.5-0.6,0.7c-0.3,0.2-0.5,0.2-0.8,0.2
				c-0.2,0-0.4,0-0.6-0.1c-0.2-0.1-0.3-0.2-0.4-0.3v1.8H117z M117.6,367c0,0.5,0.1,0.8,0.3,1s0.4,0.3,0.7,0.3c0.3,0,0.5-0.1,0.7-0.3
				c0.2-0.2,0.3-0.6,0.3-1.1c0-0.5-0.1-0.8-0.3-1c-0.2-0.2-0.4-0.3-0.7-0.3c-0.3,0-0.5,0.1-0.7,0.4
				C117.7,366.2,117.6,366.6,117.6,367z"/>
			<path class="st8" d="M122.3,368.3l0.1,0.5c-0.2,0-0.3,0.1-0.5,0.1c-0.2,0-0.4,0-0.5-0.1c-0.1-0.1-0.2-0.2-0.3-0.3
				s-0.1-0.4-0.1-0.7v-2.1h-0.5v-0.5h0.5v-0.9l0.6-0.4v1.3h0.6v0.5h-0.6v2.1c0,0.2,0,0.3,0,0.3c0,0,0.1,0.1,0.1,0.1c0,0,0.1,0,0.2,0
				C122.1,368.3,122.2,368.3,122.3,368.3z"/>
			<path class="st8" d="M122.9,364.5v-0.7h0.6v0.7H122.9z M122.9,368.8v-3.6h0.6v3.6H122.9z"/>
			<path class="st8" d="M124.2,367c0-0.7,0.2-1.2,0.6-1.5c0.3-0.3,0.7-0.4,1.1-0.4c0.5,0,0.9,0.2,1.2,0.5s0.5,0.8,0.5,1.4
				c0,0.5-0.1,0.8-0.2,1.1c-0.1,0.3-0.3,0.5-0.6,0.6c-0.3,0.1-0.6,0.2-0.9,0.2c-0.5,0-0.9-0.2-1.2-0.5
				C124.4,368.1,124.2,367.6,124.2,367z M124.8,367c0,0.5,0.1,0.8,0.3,1s0.5,0.3,0.8,0.3c0.3,0,0.6-0.1,0.8-0.3s0.3-0.6,0.3-1.1
				c0-0.4-0.1-0.8-0.3-1c-0.2-0.2-0.5-0.3-0.8-0.3c-0.3,0-0.6,0.1-0.8,0.3S124.8,366.6,124.8,367z"/>
			<path class="st8" d="M128.3,368.8v-3.6h0.6v0.5c0.3-0.4,0.7-0.6,1.2-0.6c0.2,0,0.4,0,0.6,0.1c0.2,0.1,0.3,0.2,0.4,0.3
				c0.1,0.1,0.2,0.3,0.2,0.5c0,0.1,0,0.3,0,0.6v2.2h-0.6v-2.2c0-0.3,0-0.4-0.1-0.6s-0.1-0.2-0.3-0.3c-0.1-0.1-0.3-0.1-0.4-0.1
				c-0.3,0-0.5,0.1-0.7,0.2c-0.2,0.2-0.3,0.5-0.3,0.9v2H128.3z"/>
		</g>
	</g>
</g>
<rect id="mask" x="87.4" y="331.3" class="st9" width="53.9" height="63.7"/>
<g id="svg2phone">
	<path id="XMLID_902_" class="st0" d="M136.3,245.6H92.5c-2.8,0-5.1,2.3-5.1,5.1v3.7v77.7v6c0,2.8,2.3,5.1,5.1,5.1h43.7
		c2.8,0,5.1-2.3,5.1-5.1v-6v-77.7v-3.7C141.3,247.9,139.1,245.6,136.3,245.6z M136.3,341.6H92.5c-1,0-1.8-0.4-2.5-1
		c-0.6-0.6-1-1.5-1-2.5v-5.2h50.7v5.2c0,1-0.4,1.8-1,2.5C138.1,341.2,137.2,341.6,136.3,341.6z M92.5,247.2h43.7c1,0,1.8,0.4,2.5,1
		c0.6,0.6,1,1.5,1,2.5v2.9H89v-2.9c0-1,0.4-1.8,1-2.5C90.7,247.6,91.6,247.2,92.5,247.2z M139.8,255.1v76.2H89.1v-76.2L139.8,255.1
		L139.8,255.1z"/>
	<path id="XMLID_899_" class="st0" d="M117.8,334.6H111c-1.2,0-2.2,1-2.2,2.2s1,2.2,2.2,2.2h6.8c1.2,0,2.2-1,2.2-2.2
		S119,334.6,117.8,334.6z M117.8,337.4H111c-0.3,0-0.6-0.3-0.6-0.6c0-0.3,0.3-0.6,0.6-0.6h6.8c0.3,0,0.6,0.3,0.6,0.6
		S118.1,337.4,117.8,337.4z"/>
</g>
</svg>
