<?xml version="1.0" encoding="utf-8"?>
<!-- Generator: Adobe Illustrator 22.0.1, SVG Export Plug-In . SVG Version: 6.00 Build 0)  -->
<svg version="1.1" id="Layer_1" xmlns="http://www.w3.org/2000/svg" xmlns:xlink="http://www.w3.org/1999/xlink" x="0px" y="0px"
	 viewBox="0 0 1000 500" style="enable-background:new 0 0 1000 500;" xml:space="preserve">
<style type="text/css">
	.st0{fill:#414142;}
	.st1{fill:#020203;}
</style>
<g id="PC">
	<path class="st0" d="M958.2,154.5H717.4c-3.9,0-7.1,3.2-7.1,7.1v151.6c0,3.9,3.2,7.1,7.1,7.1h94.9c-0.1,9.7-1.8,15.6-3.5,19
		c-0.9,1.8-1.7,2.9-2.4,3.6c-0.3,0.3-0.6,0.6-0.8,0.7c-0.1,0-0.1,0.1-0.1,0.1h-12.1c-1.6,0-3.3,0.6-4.6,1.7c-1.3,1-2.2,2.5-2.2,4.2
		v2.8c0,0.5,0.4,1,1,1H888c0.5,0,1-0.4,1-1v-2.8c0-1.7-0.9-3.1-2.2-4.2c-1.3-1-3-1.7-4.6-1.7h-12.1c-0.5-0.3-1.9-1.5-3.4-4.4
		c-1.7-3.4-3.3-9.3-3.5-19h94.9c3.9,0,7.1-3.2,7.1-7.1V161.6C965.3,157.7,962.1,154.5,958.2,154.5z M882.2,345.7
		c1.1,0,2.3,0.5,3.3,1.2c1,0.7,1.6,1.7,1.6,2.7v1.8l-98.6,0v-1.8c0-1,0.7-2,1.6-2.7c1-0.7,2.2-1.2,3.3-1.2H882.2z M867.2,343.8
		h-58.9c2.3-2.8,5.8-9.2,6-23.4h47C861.4,334.5,864.9,341,867.2,343.8z M963.3,313.2c0,1.4-0.6,2.7-1.5,3.7
		c-0.9,0.9-2.2,1.5-3.7,1.5H717.4c-1.4,0-2.7-0.6-3.7-1.5c-0.9-0.9-1.5-2.2-1.5-3.7v-10h251.1V313.2z M963.3,301.2l-251.1,0V168.3
		h251.1V301.2z M963.3,166.4H712.2v-4.8c0-1.4,0.6-2.7,1.5-3.7c0.9-0.9,2.2-1.5,3.7-1.5h240.7c1.4,0,2.7,0.6,3.7,1.5
		c0.9,0.9,1.5,2.2,1.5,3.7V166.4z"/>
	<path id="XMLID_961_" class="st0" d="M844.8,307.5h-14c-1.8,0-3.2,1.4-3.2,3.2c0,1.8,1.4,3.2,3.2,3.2h14c1.8,0,3.2-1.4,3.2-3.2
		C848,309,846.6,307.5,844.8,307.5z M845.7,311.6c-0.2,0.2-0.5,0.4-0.9,0.4h-14c-0.3,0-0.7-0.1-0.9-0.4c-0.2-0.2-0.4-0.5-0.4-0.9
		c0-0.3,0.1-0.7,0.4-0.9c0.2-0.2,0.5-0.4,0.9-0.4h14c0.3,0,0.7,0.1,0.9,0.4c0.2,0.2,0.4,0.5,0.4,0.9
		C846,311.1,845.9,311.4,845.7,311.6z"/>
</g>
<g id="svg1router">
	<path d="M482.5,308.6H390c-5.5,0-10,4.5-10,10v14.1c0,5.5,4.5,10,10,10h92.4c5.5,0,10-4.5,10-10v-14.1
		C492.5,313.2,488,308.6,482.5,308.6L482.5,308.6z M490.2,333.7c0,3.8-2.8,6.8-6.2,6.8h-95.6c-3.4,0-6.2-3.1-6.2-6.8v-15.9
		c0-3.8,2.8-6.8,6.2-6.8H484c3.4,0,6.2,3.1,6.2,6.8V333.7z M488.5,332.8"/>
	<path d="M468.9,318.9c-3.5,0-6.3,2.8-6.3,6.3s2.8,6.3,6.3,6.3c3.5,0,6.3-2.8,6.3-6.3S472.4,318.9,468.9,318.9L468.9,318.9z
		 M468.9,328.7c-1.9,0-3.5-1.6-3.5-3.5c0-1.9,1.6-3.5,3.5-3.5c1.9,0,3.5,1.6,3.5,3.5C472.4,327.2,470.8,328.7,468.9,328.7
		L468.9,328.7z M468.9,328.7"/>
	<path id="svg1routerlink3" d="M416.8,322.9c-1.3,0-2.4,1.1-2.4,2.4c0,1.3,1.1,2.4,2.4,2.4c1.3,0,2.4-1.1,2.4-2.4
		C419.1,323.9,418.1,322.9,416.8,322.9L416.8,322.9z M416.8,326.5"/>
	<path id="svg1routerlink2" d="M403.6,322.9c-1.3,0-2.4,1.1-2.4,2.4c0,1.3,1.1,2.4,2.4,2.4c1.3,0,2.4-1.1,2.4-2.4
		C406,323.9,404.9,322.9,403.6,322.9L403.6,322.9z M403.6,326.5"/>
	<path id="svg1routerlnik1" d="M391.1,322.9c-1.3,0-2.4,1.1-2.4,2.4c0,1.3,1.1,2.4,2.4,2.4c1.3,0,2.4-1.1,2.4-2.4
		C393.4,323.9,392.3,322.9,391.1,322.9L391.1,322.9z M391.1,326.5"/>
	<rect x="457.2" y="269.5" width="2.5" height="36.2"/>
	<rect x="413.3" y="269.5" width="2.5" height="36.2"/>
</g>
<rect id="svg1dash6" x="657.4" y="322" width="16" height="4"/>
<rect id="svg1dash5" x="597.1" y="322" width="16" height="4"/>
<rect id="svg1dash4" x="536.4" y="322" width="16" height="4"/>
<rect id="svg1dash3" x="306.4" y="322" width="16" height="4"/>
<rect id="svg1dash2" x="246.1" y="322" width="16" height="4"/>
<rect id="svg1dash1" x="185.4" y="322" width="16" height="4"/>
<g id="svg1phone">
	<path id="XMLID_902_" class="st0" d="M136.3,245.6H92.5c-2.8,0-5.1,2.3-5.1,5.1v3.7v77.7v6c0,2.8,2.3,5.1,5.1,5.1h43.7
		c2.8,0,5.1-2.3,5.1-5.1v-6v-77.7v-3.7C141.3,247.9,139.1,245.6,136.3,245.6z M136.3,341.6H92.5c-1,0-1.8-0.4-2.5-1
		c-0.6-0.6-1-1.5-1-2.5v-5.2h50.7v5.2c0,1-0.4,1.8-1,2.5C138.1,341.2,137.2,341.6,136.3,341.6z M92.5,247.2h43.7c1,0,1.8,0.4,2.5,1
		c0.6,0.6,1,1.5,1,2.5v2.9H89v-2.9c0-1,0.4-1.8,1-2.5C90.7,247.6,91.6,247.2,92.5,247.2z M139.8,255.1v76.2l-50.7,0v-76.2H139.8z"/>
	<path id="XMLID_899_" class="st0" d="M117.8,334.6H111c-1.2,0-2.2,1-2.2,2.2c0,1.2,1,2.2,2.2,2.2h6.8c1.2,0,2.2-1,2.2-2.2
		C120,335.6,119,334.6,117.8,334.6z M117.8,337.4H111c-0.3,0-0.6-0.3-0.6-0.6c0-0.3,0.3-0.6,0.6-0.6h6.8c0.3,0,0.6,0.3,0.6,0.6
		C118.4,337.1,118.1,337.4,117.8,337.4z"/>
</g>
<g id="svg1numbers">
	<path id="svg1num1" d="M743.3,248.1v-1.9l2.5-2.4c6-5.7,8.7-8.7,8.7-12.2c0-2.4-1.2-4.6-4.6-4.6c-2.1,0-3.9,1.1-5,2l-1-2.2
		c1.6-1.4,3.9-2.4,6.6-2.4c5,0,7.2,3.5,7.2,6.8c0,4.3-3.1,7.8-8.1,12.6l-1.9,1.7v0.1h10.5v2.6H743.3z"/>
	<path id="svg1num2" d="M778.7,224.7v2.1l-10.2,21.3h-3.3l10.2-20.7v-0.1H764v-2.6H778.7z"/>
	<path id="svg1num3" d="M784.6,244.5c0.9,0.6,3,1.5,5.2,1.5c4.1,0,5.3-2.6,5.3-4.5c0-3.3-3-4.7-6-4.7h-1.8v-2.4h1.8
		c2.3,0,5.2-1.2,5.2-4c0-1.9-1.2-3.5-4.1-3.5c-1.9,0-3.7,0.8-4.7,1.5l-0.8-2.3c1.2-0.9,3.6-1.8,6.1-1.8c4.6,0,6.7,2.7,6.7,5.6
		c0,2.4-1.4,4.5-4.3,5.5v0.1c2.9,0.6,5.2,2.7,5.2,6c0,3.7-2.9,7-8.5,7c-2.6,0-4.9-0.8-6.1-1.6L784.6,244.5z"/>
	<path id="svg1num4" d="M819.3,224.7v2.1l-10.2,21.3h-3.3l10.2-20.7v-0.1h-11.4v-2.6H819.3z"/>
	<path id="svg1num5" d="M826.2,245.9c0.7,0.1,1.5,0,2.6-0.1c1.8-0.3,3.6-1,4.9-2.3c1.5-1.4,2.7-3.5,3.1-6.2h-0.1
		c-1.3,1.6-3.2,2.5-5.5,2.5c-4.2,0-6.9-3.2-6.9-7.2c0-4.4,3.2-8.3,8-8.3s7.7,3.9,7.7,9.9c0,5.1-1.7,8.7-4,11
		c-1.8,1.8-4.3,2.8-6.8,3.1c-1.2,0.2-2.2,0.2-2.9,0.2V245.9z M827.3,232.4c0,2.9,1.8,5,4.5,5c2.1,0,3.8-1,4.6-2.4
		c0.2-0.3,0.3-0.6,0.3-1.2c0-4-1.5-7.1-4.8-7.1C829.3,226.8,827.3,229.1,827.3,232.4z"/>
	<path id="svg1num6" d="M854.4,248.1v-6.4h-10.9v-2.1l10.4-14.9h3.4v14.5h3.3v2.5h-3.3v6.4H854.4z M854.4,239.3v-7.8
		c0-1.2,0-2.4,0.1-3.7h-0.1c-0.7,1.4-1.3,2.4-1.9,3.5l-5.7,8v0.1H854.4z"/>
	<path id="svg1num7" d="M878.9,227.4h-8.9l-0.9,6c0.5-0.1,1-0.1,1.9-0.1c1.8,0,3.6,0.4,5,1.3c1.8,1,3.3,3.1,3.3,6c0,4.6-3.6,8-8.7,8
		c-2.6,0-4.7-0.7-5.8-1.4l0.8-2.4c1,0.6,2.9,1.3,5,1.3c3,0,5.5-1.9,5.5-5.1c0-3-2.1-5.2-6.7-5.2c-1.3,0-2.4,0.1-3.2,0.3l1.5-11.2
		h11.2V227.4z"/>
	<path id="svg1num8" d="M898.5,227c-0.6,0-1.5,0-2.4,0.1c-5,0.8-7.6,4.5-8.1,8.3h0.1c1.1-1.5,3.1-2.7,5.7-2.7c4.1,0,7.1,3,7.1,7.6
		c0,4.3-2.9,8.2-7.8,8.2c-5,0-8.3-3.9-8.3-10c0-4.6,1.7-8.2,4-10.5c1.9-1.9,4.5-3.1,7.5-3.5c0.9-0.1,1.7-0.2,2.3-0.2V227z
		 M897.6,240.5c0-3.3-1.9-5.4-4.8-5.4c-1.9,0-3.7,1.2-4.5,2.9c-0.2,0.4-0.4,0.8-0.4,1.4c0.1,3.9,1.8,6.7,5.1,6.7
		C895.8,246.1,897.6,243.8,897.6,240.5z"/>
	<path id="svg1num9" d="M907.3,245.9c0.7,0.1,1.5,0,2.6-0.1c1.8-0.3,3.6-1,4.9-2.3c1.5-1.4,2.7-3.5,3.1-6.2h-0.1
		c-1.3,1.6-3.2,2.5-5.5,2.5c-4.2,0-6.9-3.2-6.9-7.2c0-4.4,3.2-8.3,8-8.3s7.7,3.9,7.7,9.9c0,5.1-1.7,8.7-4,11
		c-1.8,1.8-4.3,2.8-6.8,3.1c-1.2,0.2-2.2,0.2-2.9,0.2V245.9z M908.4,232.4c0,2.9,1.8,5,4.5,5c2.1,0,3.8-1,4.6-2.4
		c0.2-0.3,0.3-0.6,0.3-1.2c0-4-1.5-7.1-4.8-7.1C910.3,226.8,908.4,229.1,908.4,232.4z"/>
</g>
<g id="svg1barcode">
	<g>
		<g>
			<path class="st1" d="M101.1,278.4h-5.3c-0.7,0-1.3,0.6-1.3,1.3v5.3c0,0.7,0.6,1.3,1.3,1.3s1.3-0.6,1.3-1.3v-4h4
				c0.7,0,1.3-0.6,1.3-1.3C102.4,279,101.8,278.4,101.1,278.4z"/>
		</g>
	</g>
	<g>
		<g>
			<path class="st1" d="M133.1,302.4c-0.7,0-1.3,0.6-1.3,1.3v4h-4c-0.7,0-1.3,0.6-1.3,1.3s0.6,1.3,1.3,1.3h5.3
				c0.7,0,1.3-0.6,1.3-1.3v-5.3C134.4,303,133.8,302.4,133.1,302.4z"/>
		</g>
	</g>
	<g>
		<g>
			<path class="st1" d="M133.1,278.4h-5.3c-0.7,0-1.3,0.6-1.3,1.3c0,0.7,0.6,1.3,1.3,1.3h4v4c0,0.7,0.6,1.3,1.3,1.3
				c0.7,0,1.3-0.6,1.3-1.3v-5.3C134.4,279,133.8,278.4,133.1,278.4z"/>
		</g>
	</g>
	<g>
		<g>
			<path class="st1" d="M101.1,307.7h-4v-4c0-0.7-0.6-1.3-1.3-1.3s-1.3,0.6-1.3,1.3v5.3c0,0.7,0.6,1.3,1.3,1.3h5.3
				c0.7,0,1.3-0.6,1.3-1.3S101.8,307.7,101.1,307.7z"/>
		</g>
	</g>
	<g>
		<g>
			<rect x="99.7" y="283.7" class="st1" width="2.7" height="21.3"/>
		</g>
	</g>
	<g>
		<g>
			<rect x="105.1" y="283.7" class="st1" width="2.7" height="16"/>
		</g>
	</g>
	<g>
		<g>
			<rect x="110.4" y="283.7" class="st1" width="2.7" height="16"/>
		</g>
	</g>
	<g>
		<g>
			<rect x="115.7" y="283.7" class="st1" width="2.7" height="21.3"/>
		</g>
	</g>
	<g>
		<g>
			<rect x="121.1" y="283.7" class="st1" width="2.7" height="16"/>
		</g>
	</g>
	<g>
		<g>
			<rect x="126.4" y="283.7" class="st1" width="2.7" height="21.3"/>
		</g>
	</g>
	<g>
		<g>
			<rect x="105.1" y="302.4" class="st1" width="2.7" height="2.7"/>
		</g>
	</g>
	<g>
		<g>
			<rect x="110.4" y="302.4" class="st1" width="2.7" height="2.7"/>
		</g>
	</g>
	<g>
		<g>
			<rect x="121.1" y="302.4" class="st1" width="2.7" height="2.7"/>
		</g>
	</g>
</g>
</svg>
