<?xml version="1.0" encoding="utf-8"?>
<!-- Generator: Adobe Illustrator 22.0.1, SVG Export Plug-In . SVG Version: 6.00 Build 0)  -->
<svg version="1.1" id="Layer_1" xmlns="http://www.w3.org/2000/svg" xmlns:xlink="http://www.w3.org/1999/xlink" x="0px" y="0px"
	 viewBox="0 0 1000 500" style="enable-background:new 0 0 1000 500;" xml:space="preserve">
<style type="text/css">
	.st0{fill:#414142;}
	.st1{fill:#020203;}
	.st2{fill:#E9E9E9;}
	.st3{fill:#FFFFFF;stroke:#949494;stroke-width:0.2;stroke-linecap:round;stroke-linejoin:round;stroke-miterlimit:10;}
	.st4{fill:#FFFFFF;stroke:#5C5C5B;stroke-width:0.2;stroke-linecap:round;stroke-linejoin:round;stroke-miterlimit:10;}
	.st5{fill:#D40D41;}
	.st6{font-family:'MyriadPro-Regular';}
	.st7{font-size:3px;}
	.st8{fill:none;}
	.st9{fill:#5C5C5B;}
	.st10{font-size:6px;}
	.st11{fill:#FFFFFF;}
</style>
<g id="svg2PC">
	<path class="st0" d="M958.2,154.5H717.4c-3.9,0-7.1,3.2-7.1,7.1v151.6c0,3.9,3.2,7.1,7.1,7.1h94.9c-0.1,9.7-1.8,15.6-3.5,19
		c-0.9,1.8-1.7,2.9-2.4,3.6c-0.3,0.3-0.6,0.6-0.8,0.7c-0.1,0-0.1,0.1-0.1,0.1h-12.1c-1.6,0-3.3,0.6-4.6,1.7c-1.3,1-2.2,2.5-2.2,4.2
		v2.8c0,0.5,0.4,1,1,1H888c0.5,0,1-0.4,1-1v-2.8c0-1.7-0.9-3.1-2.2-4.2c-1.3-1-3-1.7-4.6-1.7h-12.1c-0.5-0.3-1.9-1.5-3.4-4.4
		c-1.7-3.4-3.3-9.3-3.5-19h94.9c3.9,0,7.1-3.2,7.1-7.1V161.6C965.3,157.7,962.1,154.5,958.2,154.5z M882.2,345.7
		c1.1,0,2.3,0.5,3.3,1.2s1.6,1.7,1.6,2.7v1.8h-98.6v-1.8c0-1,0.7-2,1.6-2.7c1-0.7,2.2-1.2,3.3-1.2H882.2z M867.2,343.8h-58.9
		c2.3-2.8,5.8-9.2,6-23.4h47C861.4,334.5,864.9,341,867.2,343.8z M963.3,313.2c0,1.4-0.6,2.7-1.5,3.7c-0.9,0.9-2.2,1.5-3.7,1.5
		H717.4c-1.4,0-2.7-0.6-3.7-1.5c-0.9-0.9-1.5-2.2-1.5-3.7v-10h251.1L963.3,313.2L963.3,313.2z M963.3,301.2H712.2V168.3h251.1
		L963.3,301.2L963.3,301.2z M963.3,166.4H712.2v-4.8c0-1.4,0.6-2.7,1.5-3.7c0.9-0.9,2.2-1.5,3.7-1.5h240.7c1.4,0,2.7,0.6,3.7,1.5
		c0.9,0.9,1.5,2.2,1.5,3.7L963.3,166.4L963.3,166.4z"/>
	<path id="XMLID_961_" class="st0" d="M844.8,307.5h-14c-1.8,0-3.2,1.4-3.2,3.2c0,1.8,1.4,3.2,3.2,3.2h14c1.8,0,3.2-1.4,3.2-3.2
		C848,309,846.6,307.5,844.8,307.5z M845.7,311.6c-0.2,0.2-0.5,0.4-0.9,0.4h-14c-0.3,0-0.7-0.1-0.9-0.4c-0.2-0.2-0.4-0.5-0.4-0.9
		c0-0.3,0.1-0.7,0.4-0.9c0.2-0.2,0.5-0.4,0.9-0.4h14c0.3,0,0.7,0.1,0.9,0.4c0.2,0.2,0.4,0.5,0.4,0.9
		C846,311.1,845.9,311.4,845.7,311.6z"/>
</g>
<g id="svg2router">
	<path d="M482.5,308.6H390c-5.5,0-10,4.5-10,10v14.1c0,5.5,4.5,10,10,10h92.4c5.5,0,10-4.5,10-10v-14.1
		C492.5,313.2,488,308.6,482.5,308.6L482.5,308.6z M490.2,333.7c0,3.8-2.8,6.8-6.2,6.8h-95.6c-3.4,0-6.2-3.1-6.2-6.8v-15.9
		c0-3.8,2.8-6.8,6.2-6.8H484c3.4,0,6.2,3.1,6.2,6.8V333.7z"/>
	<path d="M468.9,318.9c-3.5,0-6.3,2.8-6.3,6.3s2.8,6.3,6.3,6.3s6.3-2.8,6.3-6.3S472.4,318.9,468.9,318.9L468.9,318.9z M468.9,328.7
		c-1.9,0-3.5-1.6-3.5-3.5s1.6-3.5,3.5-3.5s3.5,1.6,3.5,3.5C472.4,327.2,470.8,328.7,468.9,328.7L468.9,328.7z"/>
	<path id="svg2routerlink3" d="M416.8,322.9c-1.3,0-2.4,1.1-2.4,2.4s1.1,2.4,2.4,2.4s2.4-1.1,2.4-2.4
		C419.1,323.9,418.1,322.9,416.8,322.9L416.8,322.9z"/>
	<path id="svg2routerlink2" d="M403.6,322.9c-1.3,0-2.4,1.1-2.4,2.4s1.1,2.4,2.4,2.4s2.4-1.1,2.4-2.4
		C406,323.9,404.9,322.9,403.6,322.9L403.6,322.9z"/>
	<path id="svg2routerlnik1" d="M391.1,322.9c-1.3,0-2.4,1.1-2.4,2.4s1.1,2.4,2.4,2.4s2.4-1.1,2.4-2.4
		C393.4,323.9,392.3,322.9,391.1,322.9L391.1,322.9z"/>
	<rect x="457.2" y="269.5" width="2.5" height="36.2"/>
	<rect x="413.3" y="269.5" width="2.5" height="36.2"/>
</g>
<rect id="svg2dash6" x="657.4" y="322" width="16" height="4"/>
<rect id="svg2dash5" x="597.1" y="322" width="16" height="4"/>
<rect id="svg2dash4" x="536.4" y="322" width="16" height="4"/>
<rect id="svg2dash3" x="306.4" y="322" width="16" height="4"/>
<rect id="svg2dash2" x="246.1" y="322" width="16" height="4"/>
<rect id="svg2dash1" x="185.4" y="322" width="16" height="4"/>
<g id="svg2barcode">
	<g>
		<g>
			<path class="st1" d="M101.1,278.4h-5.3c-0.7,0-1.3,0.6-1.3,1.3v5.3c0,0.7,0.6,1.3,1.3,1.3s1.3-0.6,1.3-1.3v-4h4
				c0.7,0,1.3-0.6,1.3-1.3S101.8,278.4,101.1,278.4z"/>
		</g>
	</g>
	<g>
		<g>
			<path class="st1" d="M133.1,302.4c-0.7,0-1.3,0.6-1.3,1.3v4h-4c-0.7,0-1.3,0.6-1.3,1.3s0.6,1.3,1.3,1.3h5.3
				c0.7,0,1.3-0.6,1.3-1.3v-5.3C134.4,303,133.8,302.4,133.1,302.4z"/>
		</g>
	</g>
	<g>
		<g>
			<path class="st1" d="M133.1,278.4h-5.3c-0.7,0-1.3,0.6-1.3,1.3c0,0.7,0.6,1.3,1.3,1.3h4v4c0,0.7,0.6,1.3,1.3,1.3s1.3-0.6,1.3-1.3
				v-5.3C134.4,279,133.8,278.4,133.1,278.4z"/>
		</g>
	</g>
	<g>
		<g>
			<path class="st1" d="M101.1,307.7h-4v-4c0-0.7-0.6-1.3-1.3-1.3s-1.3,0.6-1.3,1.3v5.3c0,0.7,0.6,1.3,1.3,1.3h5.3
				c0.7,0,1.3-0.6,1.3-1.3S101.8,307.7,101.1,307.7z"/>
		</g>
	</g>
	<g>
		<g>
			<rect x="99.7" y="283.7" class="st1" width="2.7" height="21.3"/>
		</g>
	</g>
	<g>
		<g>
			<rect x="105.1" y="283.7" class="st1" width="2.7" height="16"/>
		</g>
	</g>
	<g>
		<g>
			<rect x="110.4" y="283.7" class="st1" width="2.7" height="16"/>
		</g>
	</g>
	<g>
		<g>
			<rect x="115.7" y="283.7" class="st1" width="2.7" height="21.3"/>
		</g>
	</g>
	<g>
		<g>
			<rect x="121.1" y="283.7" class="st1" width="2.7" height="16"/>
		</g>
	</g>
	<g>
		<g>
			<rect x="126.4" y="283.7" class="st1" width="2.7" height="21.3"/>
		</g>
	</g>
	<g>
		<g>
			<rect x="105.1" y="302.4" class="st1" width="2.7" height="2.7"/>
		</g>
	</g>
	<g>
		<g>
			<rect x="110.4" y="302.4" class="st1" width="2.7" height="2.7"/>
		</g>
	</g>
	<g>
		<g>
			<rect x="121.1" y="302.4" class="st1" width="2.7" height="2.7"/>
		</g>
	</g>
</g>
<rect x="764.5" y="197.3" class="st2" width="15.3" height="6.8"/>
<rect x="784.3" y="197.3" class="st2" width="15.3" height="6.8"/>
<rect x="804.3" y="197.3" class="st2" width="15.3" height="6.8"/>
<rect x="824.5" y="197.3" class="st2" width="61.6" height="6.8"/>
<g id="svg2items">
	<path id="svg2item1" class="st3" d="M884.1,217H766.3c-1,0-1.9-0.8-1.9-1.9v-4.7c0-1,0.8-1.9,1.9-1.9h117.8c1,0,1.9,0.8,1.9,1.9
		v4.7C886,216.1,885.2,217,884.1,217z"/>
	<path id="svg2item2" class="st3" d="M884.1,230H766.3c-1,0-1.9-0.8-1.9-1.9v-4.7c0-1,0.8-1.9,1.9-1.9h117.8c1,0,1.9,0.8,1.9,1.9
		v4.7C886,229.1,885.2,230,884.1,230z"/>
	<path id="svg2item3" class="st3" d="M884.1,242.9H766.3c-1,0-1.9-0.8-1.9-1.9v-4.7c0-1,0.8-1.9,1.9-1.9h117.8c1,0,1.9,0.8,1.9,1.9
		v4.7C886,242.1,885.2,242.9,884.1,242.9z"/>
	<path id="svg2item4" class="st3" d="M884.1,255.9H766.3c-1,0-1.9-0.8-1.9-1.9v-4.7c0-1,0.8-1.9,1.9-1.9h117.8c1,0,1.9,0.8,1.9,1.9
		v4.7C886,255.1,885.2,255.9,884.1,255.9z"/>
	<path id="svg2item5" class="st3" d="M884.1,268.9H766.3c-1,0-1.9-0.8-1.9-1.9v-4.7c0-1,0.8-1.9,1.9-1.9h117.8c1,0,1.9,0.8,1.9,1.9
		v4.7C886,268.1,885.2,268.9,884.1,268.9z"/>
	<path id="svg2item6" class="st3" d="M884.1,281.9H766.3c-1,0-1.9-0.8-1.9-1.9v-4.7c0-1,0.8-1.9,1.9-1.9h117.8c1,0,1.9,0.8,1.9,1.9
		v4.7C886,281,885.2,281.9,884.1,281.9z"/>
	<path id="svg2item7" class="st3" d="M884.1,294.9H766.3c-1,0-1.9-0.8-1.9-1.9v-4.7c0-1,0.8-1.9,1.9-1.9h117.8c1,0,1.9,0.8,1.9,1.9
		v4.7C886,294,885.2,294.9,884.1,294.9z"/>
</g>
<g id="actionsheet">
	<path id="content" class="st4" d="M132.3,333.4H96.6c-2,0-3.7,1.6-3.7,3.7v34.3c0,2,1.6,3.7,3.7,3.7h35.6c2,0,3.7-1.6,3.7-3.7V337
		C136,335,134.3,333.4,132.3,333.4z"/>
	<path id="cancel" class="st4" d="M132.7,376.8H96c-1.7,0-3.2,1.4-3.2,3.2v3.3c0,1.7,1.4,3.2,3.2,3.2h36.7c1.7,0,3.2-1.4,3.2-3.2
		V380C135.9,378.2,134.4,376.8,132.7,376.8z"/>
	<text id="canceltext" transform="matrix(1 0 0 1 110.2467 382.6251)" class="st5 st6 st7">Cancel</text>
	<rect x="97.6" y="335" class="st8" width="33.5" height="38.4"/>
	<text id="contenttext" transform="matrix(1 0 0 1 108.978 339.2598)"><tspan x="0" y="0" class="st9 st6 st10">Title</tspan><tspan x="2" y="6" class="st9 st6 st7">12.00</tspan><tspan x="-8.2" y="9.6" class="st9 st6 st7">Lorem ipsum dolor sit </tspan><tspan x="-6.6" y="13.2" class="st9 st6 st7">amet, consectetuer </tspan><tspan x="-9.6" y="16.8" class="st9 st6 st7">adipiscing elit, sed diam </tspan><tspan x="-10.1" y="20.4" class="st9 st6 st7">nonummy nibh euismod </tspan><tspan x="-11.1" y="24" class="st9 st6 st7">tincidunt ut laoreet dolore </tspan><tspan x="-7.1" y="27.6" class="st9 st6 st7">magna aliquam erat </tspan><tspan x="-8.2" y="31.2" class="st9 st6 st7">volutpat. Ut wisi enim  </tspan></text>
</g>
<rect id="mask" x="87.4" y="331.3" class="st11" width="53.9" height="63.7"/>
<g id="svg2phone">
	<path id="XMLID_902_" class="st0" d="M136.3,245.6H92.5c-2.8,0-5.1,2.3-5.1,5.1v3.7v77.7v6c0,2.8,2.3,5.1,5.1,5.1h43.7
		c2.8,0,5.1-2.3,5.1-5.1v-6v-77.7v-3.7C141.3,247.9,139.1,245.6,136.3,245.6z M136.3,341.6H92.5c-1,0-1.8-0.4-2.5-1
		c-0.6-0.6-1-1.5-1-2.5v-5.2h50.7v5.2c0,1-0.4,1.8-1,2.5C138.1,341.2,137.2,341.6,136.3,341.6z M92.5,247.2h43.7c1,0,1.8,0.4,2.5,1
		c0.6,0.6,1,1.5,1,2.5v2.9H89v-2.9c0-1,0.4-1.8,1-2.5C90.7,247.6,91.6,247.2,92.5,247.2z M139.8,255.1v76.2H89.1v-76.2L139.8,255.1
		L139.8,255.1z"/>
	<path id="XMLID_899_" class="st0" d="M117.8,334.6H111c-1.2,0-2.2,1-2.2,2.2s1,2.2,2.2,2.2h6.8c1.2,0,2.2-1,2.2-2.2
		S119,334.6,117.8,334.6z M117.8,337.4H111c-0.3,0-0.6-0.3-0.6-0.6c0-0.3,0.3-0.6,0.6-0.6h6.8c0.3,0,0.6,0.3,0.6,0.6
		S118.1,337.4,117.8,337.4z"/>
</g>
</svg>
